<svg width="595" height="64" fill="none" xmlns="http://www.w3.org/2000/svg"><path d="M12.464 62c-.188 0-.282-.188-.282-.563 0-.376.063-.564.188-.564 2.63 0 4.54-.157 5.729-.47 1.252-.313 2.097-.907 2.536-1.784.438-.94.657-2.348.657-4.227V10.907c.063-2.191-.219-3.631-.845-4.32-.626-.751-1.816-1.127-3.57-1.127h-1.22c-2.129 0-4.226.689-6.293 2.066-2.066 1.315-3.82 3.1-5.26 5.354a16.553 16.553 0 0 0-2.629 7.232c0 .125-.156.188-.47.188-.187 0-.375-.032-.563-.094-.125-.126-.157-.22-.094-.282.313-2.38.783-8.61 1.409-18.69 0-.188.156-.282.47-.282.187 0 .344.031.469.094.188.063.282.156.282.282 0 1.315 1.409 1.972 4.226 1.972 5.072.188 11.427.282 19.066.282 3.444 0 7.294-.063 11.552-.188l6.575-.094c2.066 0 3.568-.157 4.508-.47.939-.313 1.534-.939 1.784-1.878.125-.188.344-.25.658-.188.375 0 .532.125.47.376-.189 2.755-.377 6.23-.564 10.425-.188 4.132-.25 6.919-.188 8.359 0 .188-.188.282-.564.282-.5 0-.751-.126-.751-.376 0-2.567-.595-4.946-1.785-7.138a13.371 13.371 0 0 0-4.79-5.26C41.172 6.118 38.98 5.46 36.602 5.46h-1.22c-1.253 0-2.161.157-2.724.47-.501.313-.814.845-.94 1.596-.125.69-.219 1.879-.281 3.57l.093 43.297c0 1.94.188 3.35.564 4.226.438.877 1.252 1.471 2.442 1.784 1.19.313 3.13.47 5.823.47.188 0 .282.188.282.564 0 .375-.094.563-.282.563-2.317 0-4.133-.031-5.447-.094l-8.547-.094-8.077.094c-1.378.063-3.319.094-5.823.094Zm110.516-1.127c.187 0 .281.188.281.564 0 .375-.094.563-.281.563l-9.205-.094-7.137.094c-.689 0-1.127-.094-1.315-.282-.126-.188-.188-.689-.188-1.503v-4.132c-3.006 2.505-6.042 4.32-9.11 5.447-3.006 1.065-6.293 1.597-9.862 1.597-4.446 0-8.421-.751-11.928-2.254-3.506-1.503-6.261-3.663-8.265-6.48-2.003-2.818-3.005-6.105-3.005-9.862V10.908c0-1.816-.188-3.162-.564-4.039-.313-.94-.908-1.565-1.784-1.878-.877-.376-2.192-.564-3.945-.564-.188 0-.282-.188-.282-.563 0-.376.094-.564.282-.564l4.602.094c2.63.125 4.853.188 6.668.188 1.629 0 3.883-.063 6.763-.188L79.4 3.3c.25 0 .375.188.375.564.063.375 0 .563-.187.563-1.879 0-3.288.188-4.227.564-.876.375-1.471 1.001-1.784 1.878-.25.877-.407 2.285-.47 4.226v30.149c-.063 5.823 1.378 10.362 4.32 13.618 2.943 3.193 7.044 4.79 12.304 4.79 2.692 0 5.26-.47 7.701-1.409 2.442-1.002 5.009-2.63 7.702-4.884l-.094-42.264c.063-2.692-.313-4.476-1.127-5.353-.814-.877-2.505-1.315-5.072-1.315-.188 0-.282-.188-.282-.563 0-.376.063-.564.188-.564l4.696.094c2.755.125 5.009.188 6.763.188 1.565 0 3.788-.063 6.668-.188l4.696-.094c.25 0 .376.188.376.564.062.375 0 .563-.188.563-1.879 0-3.288.188-4.227.564-.876.313-1.471.907-1.784 1.784-.313.877-.47 2.254-.47 4.133v43.484c0 1.879.188 3.288.564 4.227.375.877 1.095 1.471 2.16 1.784 1.064.313 2.724.47 4.978.47Zm69.631 0c.188 0 .282.188.282.564.062.375-.032.563-.282.563h-15.403c-1.503 0-4.132-2.505-7.889-7.514-3.694-5.071-8.171-12.679-13.431-22.822-1.753.438-3.694.657-5.823.657-.313 0-.72-.062-1.221-.188v22.26c-.062 1.815.063 3.193.376 4.132a3.456 3.456 0 0 0 1.878 1.878c.94.313 2.348.47 4.227.47.25 0 .375.188.375.564.063.375-.031.563-.281.563-2.129 0-3.757-.031-4.884-.094l-6.95-.094-7.044.094c-1.252.063-2.943.094-5.072.094-.25 0-.407-.188-.469-.563 0-.376.125-.564.375-.564 2.066 0 3.6-.157 4.602-.47 1.002-.375 1.66-1.002 1.973-1.878.375-.94.594-2.317.657-4.133V10.907c0-1.878-.188-3.255-.563-4.132-.314-.877-.94-1.471-1.879-1.784-.939-.376-2.379-.564-4.32-.564-.251 0-.376-.188-.376-.563 0-.376.125-.564.376-.564l4.978.094c2.755.125 5.009.188 6.762.188 2.129 0 4.445-.125 6.95-.376 2.003-.125 3.318-.188 3.945-.188 6.323 0 11.051 1.033 14.181 3.1 3.194 2.066 4.79 4.946 4.79 8.64 0 2.693-.908 5.291-2.723 7.796-1.754 2.504-4.102 4.602-7.044 6.292 4.883 8.077 9.016 14.433 12.397 19.066 3.444 4.57 6.449 7.89 9.016 9.956 2.63 2.003 5.135 3.005 7.514 3.005Zm-43.767-31.37c.752.189 1.66.282 2.724.282 4.132 0 7.044-.907 8.735-2.723 1.753-1.816 2.629-4.853 2.629-9.11 0-4.446-.876-7.702-2.629-9.768-1.691-2.129-3.789-3.193-6.293-3.193-1.691 0-2.849.125-3.475.375-.626.188-1.065.689-1.315 1.503-.188.751-.313 2.16-.376 4.226v18.409Zm105.991 31.37c.188 0 .282.188.282.564.063.375-.031.563-.282.563h-9.58c-3.694 0-6.011-.188-6.95-.563-.876-.376-2.348-2.192-4.414-5.448a118.958 118.958 0 0 0-6.105-9.016l-12.115-16.436-3.663 3.663v20.192c0 2.13.094 3.6.281 4.415.188.751.689 1.283 1.503 1.596.877.313 2.379.47 4.508.47.126 0 .188.188.188.564 0 .375-.062.563-.188.563-2.066 0-3.631-.031-4.696-.094l-7.044-.094-6.48.094c-1.19.063-2.786.094-4.79.094-.125 0-.188-.188-.188-.563 0-.376.063-.564.188-.564 1.941 0 3.35-.157 4.226-.47.877-.313 1.472-.907 1.785-1.784.313-.94.469-2.348.469-4.227V10.907c0-1.878-.156-3.255-.469-4.132-.313-.877-.908-1.471-1.785-1.784-.876-.376-2.191-.564-3.944-.564-.188 0-.282-.188-.282-.563 0-.376.094-.564.282-.564l4.508.094c2.755.125 4.978.188 6.668.188 1.691 0 3.976-.063 6.856-.188l4.79-.094c.125 0 .188.188.188.564 0 .375-.063.563-.188.563-1.878 0-3.256.188-4.132.564-.877.375-1.472 1.001-1.785 1.878-.25.877-.407 2.285-.469 4.226v20.193l18.032-18.502c1.628-1.628 2.442-3.193 2.442-4.696 0-1.127-.438-2.004-1.315-2.63-.876-.689-2.066-1.033-3.569-1.033-.25 0-.375-.188-.375-.563 0-.376.094-.564.281-.564l5.166.094c3.506.125 6.261.188 8.265.188 2.129 0 4.32-.063 6.574-.188l3.569-.094c.188 0 .282.188.282.564 0 .375-.094.563-.282.563-2.755 0-5.791.814-9.11 2.442-3.318 1.565-6.386 3.726-9.204 6.48l-10.519 10.52 13.149 17.844c4.758 6.324 8.108 10.707 10.049 13.15 2.004 2.378 3.632 3.975 4.884 4.789 1.315.814 2.818 1.221 4.508 1.221Zm85.39 0c.188 0 .282.188.282.564.063.375-.031.563-.282.563h-9.579c-3.695 0-6.011-.188-6.951-.563-.876-.376-2.348-2.192-4.414-5.448a118.369 118.369 0 0 0-6.105-9.016l-12.115-16.436-3.663 3.663v20.192c0 2.13.094 3.6.282 4.415.187.751.688 1.283 1.502 1.596.877.313 2.38.47 4.508.47.126 0 .188.188.188.564 0 .375-.062.563-.188.563-2.066 0-3.631-.031-4.696-.094l-7.044-.094-6.48.094c-1.19.063-2.786.094-4.79.094-.125 0-.188-.188-.188-.563 0-.376.063-.564.188-.564 1.941 0 3.35-.157 4.227-.47.876-.313 1.471-.907 1.784-1.784.313-.94.47-2.348.47-4.227V10.907c0-1.878-.157-3.255-.47-4.132-.313-.877-.908-1.471-1.784-1.784-.877-.376-2.192-.564-3.945-.564-.188 0-.282-.188-.282-.563 0-.376.094-.564.282-.564l4.508.094c2.755.125 4.978.188 6.668.188 1.691 0 3.976-.063 6.856-.188l4.79-.094c.126 0 .188.188.188.564 0 .375-.062.563-.188.563-1.878 0-3.255.188-4.132.564-.877.375-1.471 1.001-1.785 1.878-.25.877-.407 2.285-.469 4.226v20.193l18.032-18.502c1.628-1.628 2.442-3.193 2.442-4.696 0-1.127-.438-2.004-1.314-2.63-.877-.689-2.067-1.033-3.569-1.033-.251 0-.376-.188-.376-.563 0-.376.094-.564.282-.564l5.165.094c3.507.125 6.262.188 8.265.188 2.129 0 4.321-.063 6.575-.188l3.569-.094c.187 0 .281.188.281.564 0 .375-.094.563-.281.563-2.755 0-5.792.814-9.111 2.442-3.318 1.565-6.386 3.726-9.204 6.48l-10.519 10.52 13.149 17.844c4.759 6.324 8.108 10.707 10.049 13.15 2.004 2.378 3.632 3.975 4.884 4.789 1.315.814 2.818 1.221 4.508 1.221Zm61.781 0c.188 0 .282.188.282.564 0 .375-.094.563-.282.563-1.127 0-2.88-.063-5.259-.188-2.63-.125-4.727-.188-6.293-.188-1.628 0-3.631.063-6.011.188-2.254.125-3.913.188-4.977.188-.251 0-.376-.188-.376-.563 0-.376.125-.564.376-.564 1.878 0 3.224-.188 4.038-.564.814-.438 1.221-1.19 1.221-2.254 0-.939-.376-2.254-1.127-3.944l-8.265-19.817h-14.839l-6.387 15.59c-1.002 2.38-1.503 4.29-1.503 5.73 0 1.815.72 3.161 2.161 4.038 1.44.814 3.662 1.221 6.668 1.221.25 0 .376.188.376.564 0 .375-.157.563-.47.563-.814 0-2.598-.063-5.353-.188-3.131-.125-5.51-.188-7.138-.188-1.503 0-3.256.063-5.26.188-1.753.125-3.193.188-4.32.188-.251 0-.376-.188-.376-.563 0-.376.125-.564.376-.564 1.878 0 3.913-1.002 6.105-3.005 2.254-2.067 4.195-4.947 5.823-8.641l19.817-46.772c0-.188.219-.282.657-.282.564 0 .971.125 1.221.376l21.038 51.562c.939 2.191 1.628 3.663 2.066 4.414.501.751 1.19 1.346 2.067 1.784.876.376 2.191.564 3.944.564Zm-40.385-29.21H374.3l-6.387-15.308-6.292 15.309ZM455.284 3.3c.313 0 .47.188.47.564 0 .375-.157.563-.47.563-2.317 0-4.352.657-6.105 1.972-1.69 1.315-3.287 4.008-4.79 8.078l-17.845 47.43c-.187.312-.657.469-1.408.469-.313 0-.626-.063-.94-.188-.313-.063-.5-.157-.563-.282l-23.386-50.81c-1.127-2.505-2.223-4.227-3.287-5.166-1.065-1.002-2.474-1.503-4.227-1.503-.188 0-.282-.188-.282-.563 0-.376.063-.564.188-.564l4.978.094c2.254.125 3.913.188 4.978.188 2.379 0 5.072-.063 8.077-.188l4.602-.094c.313 0 .47.188.47.564 0 .375-.157.563-.47.563-3.506 0-5.259.97-5.259 2.912 0 .688.25 1.628.751 2.817l17.657 38.79 12.679-34.751c.501-1.378.751-2.567.751-3.57 0-1.94-.72-3.443-2.16-4.507-1.44-1.127-3.35-1.691-5.729-1.691-.25 0-.376-.188-.376-.563 0-.376.126-.564.376-.564l4.79.094c2.755.125 5.26.188 7.514.188 1.252 0 2.817-.063 4.696-.188l4.32-.094Zm53.575 57.573c.188 0 .281.188.281.564 0 .375-.093.563-.281.563-1.127 0-2.88-.063-5.26-.188-2.63-.125-4.727-.188-6.292-.188-1.628 0-3.632.063-6.011.188-2.254.125-3.914.188-4.978.188-.251 0-.376-.188-.376-.563 0-.376.125-.564.376-.564 1.878 0 3.225-.188 4.038-.564.814-.438 1.221-1.19 1.221-2.254 0-.939-.375-2.254-1.127-3.944l-8.265-19.817h-14.839l-6.386 15.59c-1.002 2.38-1.503 4.29-1.503 5.73 0 1.815.72 3.161 2.16 4.038 1.44.814 3.663 1.221 6.668 1.221.251 0 .376.188.376.564 0 .375-.157.563-.47.563-.814 0-2.598-.063-5.353-.188-3.131-.125-5.51-.188-7.138-.188-1.503 0-3.256.063-5.26.188-1.753.125-3.193.188-4.32.188-.25 0-.376-.188-.376-.563 0-.376.126-.564.376-.564 1.879 0 3.913-1.002 6.105-3.005 2.254-2.067 4.195-4.947 5.823-8.641l19.817-46.772c0-.188.219-.282.658-.282.563 0 .97.125 1.221.376l21.038 51.562c.939 2.191 1.628 3.663 2.066 4.414.501.751 1.189 1.346 2.066 1.784.877.376 2.192.564 3.945.564Zm-40.386-29.21h12.679l-6.386-15.308-6.293 15.309Zm74.546 31.464c-7.701 0-14.025-1.503-18.972-4.508-4.946-3.006-8.515-6.794-10.707-11.364a33.862 33.862 0 0 1-3.287-14.652c0-6.199 1.503-11.583 4.508-16.154 3.068-4.634 7.107-8.14 12.116-10.52 5.072-2.441 10.55-3.662 16.436-3.662 2.88 0 5.886.282 9.016.845 3.131.501 5.667 1.127 7.608 1.879.501.313.814.594.939.845.188.25.282.689.282 1.315l.657 12.585c0 .188-.156.282-.469.282-.251 0-.439-.094-.564-.282-2.316-4.759-5.291-8.421-8.922-10.989-3.569-2.63-7.639-3.944-12.21-3.944-5.948 0-10.519 2.16-13.712 6.48-3.131 4.32-4.696 10.394-4.696 18.22 0 5.636.97 10.895 2.911 15.78 2.004 4.883 4.696 8.765 8.078 11.645 3.381 2.88 7.106 4.32 11.176 4.32 6.449 0 12.46-4.758 18.033-14.275.125-.188.281-.282.469-.282.376 0 .564.188.564.564l-.564 10.8c-.125.814-.25 1.346-.375 1.597-.126.188-.47.376-1.034.563-5.51 1.941-11.27 2.912-17.281 2.912ZM571.549 62c-.125 0-.188-.188-.188-.563 0-.376.063-.564.188-.564 1.941 0 3.318-.157 4.132-.47.877-.313 1.472-.907 1.785-1.784.313-.877.469-2.285.469-4.227V10.907c0-1.815-.187-3.161-.563-4.038-.313-.94-.908-1.565-1.785-1.878-.876-.376-2.222-.564-4.038-.564-.125 0-.219-.188-.282-.563 0-.376.094-.564.282-.564l4.696.094c2.755.125 4.978.188 6.668.188 1.879 0 4.258-.063 7.138-.188l4.602-.094c.125 0 .188.188.188.564 0 .375-.063.563-.188.563-1.878 0-3.256.188-4.132.564-.877.375-1.472 1.001-1.785 1.878-.25.877-.407 2.285-.469 4.226v43.297c0 1.879.156 3.256.469 4.133a3.454 3.454 0 0 0 1.879 1.878c.876.313 2.222.47 4.038.47.125 0 .188.188.188.564 0 .375-.063.563-.188.563-1.941 0-3.506-.031-4.696-.094l-6.856-.094-6.668.094c-1.19.063-2.818.094-4.884.094Z" fill="url(#a)"/><defs><linearGradient id="a" x1="299" y1="4" x2="299" y2="62" gradientUnits="userSpaceOnUse"><stop stop-color="#DCCA87"/><stop offset="1" stop-color="#FBF6C1"/></linearGradient></defs></svg>